<svg width="151" height="55" viewBox="0 0 151 55" fill="none" xmlns="http://www.w3.org/2000/svg">
<g clip-path="url(#clip0_255_276)">
<path d="M36.6004 11.7H29.8304L33.8404 0L27.8104 11.7H6.1904C1.7604 11.7 -1.0096 16.5 1.2004 20.33L12.0404 39.11L6.3004 54.18L13.6404 41.88L16.4104 46.67C18.6304 50.51 24.1604 50.51 26.3804 46.67L41.5804 20.34C43.8004 16.5 41.0304 11.71 36.5904 11.71L36.6004 11.7Z" fill="url(#paint0_radial_255_276)"/>
<path d="M41.0204 13.77C39.9904 12.53 38.4404 11.7 36.6004 11.7H29.8304L33.8404 0L27.8104 11.7H6.1904C1.7604 11.7 -1.0096 16.5 1.2004 20.33L10.1304 35.8C24.2904 35.42 36.2904 26.37 41.0204 13.77Z" fill="url(#paint1_linear_255_276)"/>
<path style="mix-blend-mode:screen" d="M24.6304 45.39L39.6604 19.35C41.1004 16.85 39.3004 13.73 36.4104 13.73H6.35042C3.46042 13.73 1.66042 16.85 3.10042 19.35L18.1304 45.39C19.5704 47.89 23.1804 47.89 24.6204 45.39H24.6304Z" fill="url(#paint2_radial_255_276)"/>
<path style="mix-blend-mode:multiply" opacity="0.81" d="M38.1703 19.89C38.7603 21.44 34.5403 24.49 28.7503 26.69C22.9503 28.9 17.7803 29.43 17.1903 27.88C16.6003 26.33 20.8203 23.28 26.6103 21.08C32.4103 18.87 37.5803 18.34 38.1703 19.89Z" fill="url(#paint3_radial_255_276)"/>
<path style="mix-blend-mode:multiply" opacity="0.81" d="M18.4973 23.7549C22.3021 18.8569 24.5662 14.2491 23.5543 13.463C22.5424 12.677 18.6378 16.0104 14.833 20.9085C11.0282 25.8065 8.76414 30.4143 9.77601 31.2003C10.7879 31.9863 14.6926 28.6529 18.4973 23.7549Z" fill="url(#paint4_radial_255_276)"/>
<path style="mix-blend-mode:multiply" opacity="0.81" d="M25.9402 23.27C27.2702 24.14 25.6102 29.05 22.2302 34.25C18.8502 39.45 15.0202 42.96 13.6902 42.09C12.3602 41.22 14.0202 36.31 17.4002 31.11C20.7802 25.91 24.6102 22.4 25.9402 23.27Z" fill="url(#paint5_radial_255_276)"/>
<path d="M33.8403 0L7.74029 31.83L21.3203 27.91L6.30029 54.17L35.6503 19.92L21.3203 24.29L33.8403 0Z" fill="url(#paint6_linear_255_276)"/>
<path d="M21.3203 27.91L6.30029 54.17L26.2103 26.11L21.3203 27.91Z" fill="url(#paint7_linear_255_276)"/>
<path d="M21.3203 24.29L17.5503 25.46L33.8403 0L21.3203 24.29Z" fill="url(#paint8_linear_255_276)"/>
<path d="M33.8406 0L20.4206 23.78L19.0806 24.4L33.8406 0Z" fill="url(#paint9_linear_255_276)"/>
<path d="M42.0202 20.44L35.3402 21.52L38.5002 25.02C35.3802 27.84 30.5202 30.91 24.7502 33.49C13.7002 38.44 3.52017 39.71 2.01017 36.35C1.23017 34.61 2.93017 31.96 6.28017 29.13L6.23017 29.05C1.57017 32.87 -0.839834 36.61 0.270166 39.09C2.22017 43.45 14.2602 42.3 27.1702 36.53C32.8202 34 37.7002 31 41.2402 28.07L44.2902 31.44L46.1902 22.71L46.8502 19.68L42.0302 20.46L42.0202 20.44Z" fill="url(#paint10_linear_255_276)"/>
<path style="mix-blend-mode:multiply" opacity="0.81" d="M27.1999 28.75C20.6999 32.12 15.1499 35.63 11.6499 38.44L12.0399 39.11L10.1899 43.96C10.8799 43.9 11.7099 43.75 12.6499 43.52L13.6299 41.87L14.3199 43.07C18.6099 41.81 24.5799 39.33 30.9599 36.02C31.7199 35.63 32.4599 35.23 33.1899 34.84L40.0499 22.96C36.3199 24.34 31.8599 26.32 27.1899 28.74L27.1999 28.75Z" fill="url(#paint11_radial_255_276)"/>
<path d="M2.70041 39.26C7.85041 42.86 35.0704 34.54 46.8404 19.66L42.0204 20.44L35.3404 21.52L38.5004 25.02C35.3804 27.84 30.5204 30.91 24.7504 33.49C13.7004 38.44 3.52041 39.71 2.01041 36.35C1.23041 34.61 2.93041 31.96 6.28041 29.13L6.23041 29.05C5.75041 29.45 5.29041 29.84 4.86041 30.23C2.65041 32.3 -1.09959 36.62 2.70041 39.28V39.26Z" fill="url(#paint12_linear_255_276)"/>
<path d="M55.5303 22.3C54.8003 22 54.2103 21.56 53.7803 20.97C53.3403 20.38 53.1103 19.67 53.0903 18.85H56.3703C56.4203 19.32 56.5803 19.68 56.8603 19.92C57.1403 20.17 57.5003 20.29 57.9403 20.29C58.3803 20.29 58.7603 20.19 59.0203 19.98C59.2803 19.77 59.4203 19.48 59.4203 19.11C59.4203 18.8 59.3103 18.54 59.1003 18.34C58.8903 18.14 58.6303 17.97 58.3303 17.84C58.0203 17.71 57.5903 17.56 57.0303 17.39C56.2103 17.14 55.5503 16.89 55.0303 16.63C54.5103 16.38 54.0703 16.01 53.7003 15.51C53.3303 15.02 53.1403 14.38 53.1403 13.58C53.1403 12.4 53.5703 11.48 54.4203 10.82C55.2703 10.16 56.3803 9.82001 57.7503 9.82001C59.1203 9.82001 60.2603 10.15 61.1203 10.82C61.9803 11.49 62.4303 12.41 62.4903 13.6H59.1603C59.1403 13.19 58.9903 12.87 58.7103 12.64C58.4303 12.41 58.0803 12.29 57.6503 12.29C57.2803 12.29 56.9803 12.39 56.7503 12.59C56.5203 12.79 56.4103 13.07 56.4103 13.44C56.4103 13.85 56.6003 14.17 56.9903 14.39C57.3703 14.62 57.9703 14.86 58.7903 15.13C59.6103 15.41 60.2703 15.67 60.7803 15.92C61.2903 16.17 61.7303 16.54 62.1003 17.02C62.4703 17.5 62.6603 18.12 62.6603 18.87C62.6603 19.62 62.4803 20.24 62.1103 20.83C61.7403 21.42 61.2103 21.89 60.5203 22.23C59.8203 22.58 59.0003 22.75 58.0503 22.75C57.1003 22.75 56.3003 22.6 55.5703 22.3H55.5303Z" fill="url(#paint13_linear_255_276)"/>
<path d="M68.8303 12.87C69.3603 12.58 69.9803 12.44 70.6803 12.44C71.5103 12.44 72.2603 12.65 72.9303 13.07C73.6003 13.49 74.1302 14.09 74.5202 14.87C74.9102 15.65 75.1003 16.56 75.1003 17.59C75.1003 18.62 74.9002 19.53 74.5202 20.32C74.1302 21.11 73.6003 21.71 72.9303 22.14C72.2603 22.57 71.5103 22.78 70.6803 22.78C69.9803 22.78 69.3702 22.64 68.8402 22.35C68.3102 22.06 67.8902 21.69 67.5902 21.23V27.42H64.5103V12.59H67.5902V14.01C67.8902 13.54 68.3003 13.16 68.8303 12.88V12.87ZM71.3402 15.78C70.9102 15.34 70.3903 15.12 69.7603 15.12C69.1303 15.12 68.6302 15.34 68.2002 15.79C67.7702 16.23 67.5602 16.84 67.5602 17.61C67.5602 18.38 67.7702 18.98 68.2002 19.43C68.6302 19.87 69.1403 20.1 69.7603 20.1C70.3803 20.1 70.8903 19.87 71.3303 19.43C71.7603 18.98 71.9803 18.37 71.9803 17.6C71.9803 16.83 71.7702 16.23 71.3402 15.79V15.78Z" fill="url(#paint14_linear_255_276)"/>
<path d="M86.1401 18.34H79.1701C79.2201 18.96 79.4201 19.44 79.7701 19.77C80.1201 20.1 80.5601 20.27 81.0701 20.27C81.8401 20.27 82.3701 19.95 82.6701 19.3H85.9501C85.7801 19.96 85.4801 20.55 85.0401 21.08C84.6001 21.61 84.0501 22.02 83.3901 22.32C82.7301 22.62 81.9901 22.77 81.1801 22.77C80.2001 22.77 79.3201 22.56 78.5501 22.14C77.7801 21.72 77.1801 21.12 76.7501 20.34C76.3201 19.56 76.1001 18.65 76.1001 17.6C76.1001 16.55 76.3101 15.64 76.7401 14.86C77.1701 14.08 77.7601 13.48 78.5301 13.06C79.3001 12.64 80.1801 12.43 81.1801 12.43C82.1801 12.43 83.0201 12.63 83.7701 13.04C84.5301 13.45 85.1201 14.03 85.5401 14.79C85.9701 15.55 86.1801 16.43 86.1801 17.44C86.1801 17.73 86.1601 18.03 86.1301 18.34H86.1401ZM83.0401 16.63C83.0401 16.1 82.8601 15.68 82.5001 15.37C82.1401 15.06 81.6901 14.9 81.1501 14.9C80.6101 14.9 80.2001 15.05 79.8501 15.35C79.5001 15.65 79.2801 16.08 79.1901 16.63H83.0401Z" fill="url(#paint15_linear_255_276)"/>
<path d="M87.8404 14.86C88.2704 14.08 88.8605 13.48 89.6205 13.06C90.3805 12.64 91.2504 12.43 92.2404 12.43C93.5004 12.43 94.5505 12.76 95.4005 13.42C96.2505 14.08 96.8004 15.01 97.0704 16.21H93.7905C93.5105 15.44 92.9805 15.06 92.1905 15.06C91.6305 15.06 91.1804 15.28 90.8404 15.72C90.5004 16.16 90.3404 16.78 90.3404 17.6C90.3404 18.42 90.5104 19.04 90.8404 19.48C91.1804 19.92 91.6305 20.14 92.1905 20.14C92.9805 20.14 93.5205 19.76 93.7905 18.99H97.0704C96.8104 20.17 96.2505 21.09 95.4005 21.76C94.5505 22.43 93.5005 22.77 92.2505 22.77C91.2705 22.77 90.3904 22.56 89.6304 22.14C88.8704 21.72 88.2704 21.12 87.8504 20.34C87.4204 19.56 87.2104 18.65 87.2104 17.6C87.2104 16.55 87.4204 15.64 87.8504 14.86H87.8404Z" fill="url(#paint16_linear_255_276)"/>
<path d="M104.3 20.01V22.62H102.73C101.61 22.62 100.74 22.35 100.12 21.8C99.5005 21.25 99.1805 20.36 99.1805 19.13V15.13H97.9604V12.57H99.1805V10.12H102.26V12.57H104.28V15.13H102.26V19.16C102.26 19.46 102.33 19.68 102.48 19.81C102.62 19.94 102.86 20.01 103.2 20.01H104.3Z" fill="url(#paint17_linear_255_276)"/>
<path d="M110.44 12.95C110.98 12.63 111.58 12.47 112.24 12.47V15.73H111.39C110.62 15.73 110.05 15.9 109.66 16.23C109.28 16.56 109.08 17.14 109.08 17.97V22.63H106V12.59H109.08V14.26C109.44 13.71 109.89 13.27 110.43 12.96L110.44 12.95Z" fill="url(#paint18_linear_255_276)"/>
<path d="M113.69 14.86C114.08 14.08 114.61 13.48 115.28 13.06C115.95 12.64 116.7 12.43 117.53 12.43C118.24 12.43 118.86 12.57 119.39 12.86C119.92 13.15 120.34 13.53 120.62 13.99V12.57H123.7V22.61H120.62V21.19C120.32 21.66 119.9 22.04 119.37 22.32C118.84 22.61 118.21 22.75 117.51 22.75C116.69 22.75 115.95 22.54 115.28 22.11C114.61 21.68 114.08 21.08 113.69 20.29C113.3 19.5 113.11 18.6 113.11 17.56C113.11 16.52 113.31 15.62 113.69 14.84V14.86ZM119.99 15.78C119.56 15.34 119.05 15.11 118.43 15.11C117.81 15.11 117.3 15.33 116.87 15.77C116.44 16.21 116.23 16.81 116.23 17.58C116.23 18.35 116.44 18.96 116.87 19.41C117.3 19.86 117.81 20.08 118.43 20.08C119.05 20.08 119.56 19.86 119.99 19.41C120.42 18.97 120.63 18.36 120.63 17.59C120.63 16.82 120.42 16.22 119.99 15.77V15.78Z" fill="url(#paint19_linear_255_276)"/>
<path d="M130.46 19.74L132.64 12.58H135.92L132.36 22.62H128.56L125 12.58H128.29L130.47 19.74H130.46Z" fill="url(#paint20_linear_255_276)"/>
<path d="M146.621 18.34H139.651C139.701 18.96 139.901 19.44 140.251 19.77C140.601 20.1 141.041 20.27 141.551 20.27C142.321 20.27 142.851 19.95 143.151 19.3H146.431C146.261 19.96 145.961 20.55 145.521 21.08C145.081 21.61 144.531 22.02 143.871 22.32C143.211 22.62 142.471 22.77 141.661 22.77C140.681 22.77 139.801 22.56 139.031 22.14C138.261 21.72 137.661 21.12 137.231 20.34C136.801 19.56 136.581 18.65 136.581 17.6C136.581 16.55 136.791 15.64 137.221 14.86C137.651 14.08 138.241 13.48 139.011 13.06C139.781 12.64 140.661 12.43 141.661 12.43C142.661 12.43 143.501 12.63 144.251 13.04C145.011 13.45 145.601 14.03 146.021 14.79C146.451 15.55 146.661 16.43 146.661 17.44C146.661 17.73 146.641 18.03 146.611 18.34H146.621ZM143.521 16.63C143.521 16.1 143.341 15.68 142.981 15.37C142.621 15.06 142.171 14.9 141.631 14.9C141.091 14.9 140.681 15.05 140.331 15.35C139.981 15.65 139.761 16.08 139.671 16.63H143.521Z" fill="url(#paint21_linear_255_276)"/>
<path d="M61.0703 32.4C62.0703 32.9 62.8303 33.63 63.3603 34.58C63.8903 35.53 64.1503 36.66 64.1503 37.96C64.1503 39.26 63.8803 40.38 63.3603 41.32C62.8303 42.26 62.0703 42.98 61.0703 43.48C60.0703 43.98 58.8803 44.23 57.4903 44.23H53.7603V31.65H57.4903C58.8803 31.65 60.0803 31.9 61.0703 32.41V32.4ZM61.4903 41.81C62.4103 40.89 62.8703 39.61 62.8703 37.97C62.8703 36.33 62.4103 35.02 61.4903 34.09C60.5703 33.16 59.2403 32.69 57.4903 32.69H55.0203V43.18H57.4903C59.2403 43.18 60.5803 42.72 61.4903 41.8V41.81Z" fill="#1A1A1A"/>
<path d="M66.5004 36.64C66.9004 35.88 67.4604 35.29 68.1704 34.88C68.8804 34.47 69.6904 34.26 70.5904 34.26C71.4904 34.26 72.3304 34.48 73.0104 34.91C73.6904 35.34 74.1804 35.89 74.4804 36.57V34.41H75.7404V44.24H74.4804V42.06C74.1704 42.73 73.6704 43.29 72.9904 43.73C72.3104 44.17 71.5104 44.39 70.5704 44.39C69.6804 44.39 68.8804 44.18 68.1704 43.76C67.4604 43.34 66.9004 42.75 66.5004 41.98C66.1004 41.21 65.9004 40.32 65.9004 39.32C65.9004 38.32 66.1004 37.43 66.5004 36.66V36.64ZM74.0004 37.22C73.6804 36.62 73.2404 36.16 72.6804 35.83C72.1204 35.51 71.5104 35.34 70.8404 35.34C70.1704 35.34 69.5204 35.5 68.9704 35.81C68.4204 36.12 67.9804 36.57 67.6704 37.17C67.3504 37.76 67.1904 38.47 67.1904 39.29C67.1904 40.11 67.3504 40.8 67.6704 41.4C67.9904 42.01 68.4204 42.47 68.9704 42.79C69.5204 43.11 70.1504 43.27 70.8404 43.27C71.5304 43.27 72.1304 43.11 72.6804 42.78C73.2404 42.46 73.6804 41.99 74.0004 41.39C74.3204 40.79 74.4904 40.09 74.4904 39.3C74.4904 38.51 74.3304 37.81 74.0004 37.21V37.22Z" fill="#1A1A1A"/>
<path d="M79.2405 43.58C78.5305 43.06 78.1305 42.35 78.0405 41.45H79.3405C79.4005 42 79.6605 42.45 80.1205 42.79C80.5805 43.13 81.2005 43.3 81.9805 43.3C82.6605 43.3 83.2005 43.14 83.5905 42.81C83.9805 42.49 84.1705 42.08 84.1705 41.6C84.1705 41.26 84.0605 40.99 83.8505 40.77C83.6305 40.55 83.3605 40.38 83.0305 40.26C82.7005 40.13 82.2505 40 81.6905 39.86C80.9605 39.67 80.3605 39.48 79.9105 39.28C79.4605 39.08 79.0705 38.8 78.7505 38.42C78.4305 38.04 78.2705 37.54 78.2705 36.9C78.2705 36.42 78.4105 35.98 78.7005 35.57C78.9905 35.16 79.4005 34.84 79.9205 34.6C80.4405 34.36 81.0505 34.24 81.7205 34.24C82.7805 34.24 83.6305 34.51 84.2805 35.04C84.9305 35.57 85.2805 36.31 85.3205 37.25H84.0605C84.0205 36.67 83.8005 36.21 83.3905 35.86C82.9805 35.51 82.4105 35.33 81.6905 35.33C81.0505 35.33 80.5405 35.48 80.1405 35.78C79.7405 36.08 79.5505 36.45 79.5505 36.9C79.5505 37.28 79.6705 37.6 79.9005 37.85C80.1305 38.1 80.4305 38.29 80.7705 38.43C81.1205 38.57 81.5905 38.72 82.1705 38.89C82.8805 39.08 83.4405 39.27 83.8605 39.45C84.2805 39.63 84.6405 39.89 84.9405 40.24C85.2405 40.59 85.4005 41.05 85.4105 41.63C85.4105 42.16 85.2705 42.63 84.9805 43.04C84.6905 43.45 84.2905 43.78 83.7705 44.02C83.2505 44.26 82.6605 44.38 81.9905 44.38C80.8605 44.38 79.9405 44.12 79.2305 43.6L79.2405 43.58Z" fill="#1A1A1A"/>
<path d="M94.4803 34.68C95.0703 34.99 95.5403 35.47 95.8803 36.11C96.2203 36.75 96.3903 37.53 96.3903 38.46V44.22H95.1503V38.6C95.1503 37.53 94.8803 36.72 94.3503 36.15C93.8203 35.59 93.0903 35.3 92.1603 35.3C91.2303 35.3 90.4603 35.6 89.8903 36.2C89.3303 36.8 89.0403 37.68 89.0403 38.85V44.21H87.7803V30.89H89.0403V36.06C89.3503 35.47 89.8103 35.02 90.4203 34.69C91.0303 34.37 91.7103 34.2 92.4603 34.2C93.2103 34.2 93.8703 34.36 94.4703 34.67L94.4803 34.68Z" fill="#1A1A1A"/>
<path d="M101.94 34.9C102.62 34.47 103.42 34.25 104.34 34.25C105.26 34.25 106.04 34.46 106.75 34.87C107.46 35.28 108.01 35.87 108.42 36.63C108.82 37.39 109.02 38.28 109.02 39.29C109.02 40.3 108.82 41.19 108.42 41.95C108.02 42.72 107.46 43.31 106.75 43.73C106.04 44.15 105.23 44.36 104.35 44.36C103.41 44.36 102.61 44.15 101.93 43.72C101.25 43.29 100.76 42.74 100.44 42.05V44.21H99.2002V30.89H100.44V36.56C100.76 35.88 101.27 35.32 101.94 34.89V34.9ZM107.27 37.18C106.95 36.59 106.52 36.13 105.97 35.82C105.42 35.51 104.79 35.35 104.1 35.35C103.41 35.35 102.81 35.51 102.26 35.84C101.7 36.16 101.26 36.63 100.94 37.23C100.62 37.83 100.45 38.53 100.45 39.32C100.45 40.11 100.61 40.81 100.94 41.41C101.26 42.01 101.7 42.47 102.26 42.8C102.82 43.12 103.43 43.29 104.1 43.29C104.77 43.29 105.42 43.13 105.97 42.81C106.52 42.49 106.96 42.03 107.27 41.42C107.59 40.81 107.75 40.11 107.75 39.31C107.75 38.51 107.59 37.79 107.27 37.19V37.18Z" fill="#1A1A1A"/>
<path d="M113.15 43.75C112.41 43.34 111.83 42.75 111.4 41.99C110.97 41.23 110.76 40.34 110.76 39.32C110.76 38.3 110.98 37.41 111.41 36.65C111.84 35.89 112.43 35.3 113.17 34.89C113.91 34.48 114.75 34.27 115.67 34.27C116.59 34.27 117.43 34.48 118.18 34.89C118.93 35.3 119.52 35.89 119.94 36.65C120.37 37.41 120.58 38.3 120.58 39.32C120.58 40.34 120.36 41.22 119.93 41.98C119.5 42.75 118.9 43.34 118.15 43.75C117.39 44.16 116.55 44.37 115.63 44.37C114.71 44.37 113.88 44.16 113.14 43.75H113.15ZM117.44 42.83C117.99 42.54 118.44 42.09 118.78 41.5C119.12 40.91 119.29 40.18 119.29 39.31C119.29 38.44 119.12 37.72 118.79 37.12C118.46 36.52 118.01 36.08 117.46 35.79C116.91 35.5 116.31 35.35 115.66 35.35C115.01 35.35 114.41 35.5 113.86 35.79C113.31 36.08 112.87 36.53 112.54 37.12C112.21 37.71 112.04 38.44 112.04 39.31C112.04 40.18 112.21 40.9 112.54 41.5C112.87 42.09 113.31 42.54 113.85 42.83C114.39 43.12 114.99 43.27 115.64 43.27C116.29 43.27 116.89 43.12 117.44 42.83Z" fill="#1A1A1A"/>
<path d="M122.931 36.64C123.331 35.88 123.891 35.29 124.601 34.88C125.311 34.47 126.121 34.26 127.021 34.26C127.921 34.26 128.761 34.48 129.441 34.91C130.121 35.34 130.611 35.89 130.911 36.57V34.41H132.171V44.24H130.911V42.06C130.601 42.73 130.101 43.29 129.421 43.73C128.741 44.17 127.941 44.39 127.001 44.39C126.111 44.39 125.311 44.18 124.601 43.76C123.891 43.34 123.331 42.75 122.931 41.98C122.531 41.21 122.331 40.32 122.331 39.32C122.331 38.32 122.531 37.43 122.931 36.66V36.64ZM130.431 37.22C130.111 36.62 129.671 36.16 129.111 35.83C128.551 35.51 127.941 35.34 127.271 35.34C126.601 35.34 125.951 35.5 125.401 35.81C124.851 36.12 124.411 36.57 124.101 37.17C123.781 37.76 123.621 38.47 123.621 39.29C123.621 40.11 123.781 40.8 124.101 41.4C124.421 42.01 124.851 42.47 125.401 42.79C125.951 43.11 126.581 43.27 127.271 43.27C127.961 43.27 128.561 43.11 129.111 42.78C129.671 42.46 130.111 41.99 130.431 41.39C130.751 40.79 130.921 40.09 130.921 39.3C130.921 38.51 130.761 37.81 130.431 37.21V37.22Z" fill="#1A1A1A"/>
<path d="M137.58 34.72C138.15 34.38 138.85 34.22 139.68 34.22V35.53H139.34C138.43 35.53 137.7 35.78 137.14 36.27C136.59 36.76 136.31 37.58 136.31 38.74V44.23H135.05V34.4H136.31V36.15C136.59 35.54 137.01 35.06 137.58 34.73V34.72Z" fill="#1A1A1A"/>
<path d="M141.6 36.64C142.01 35.88 142.57 35.29 143.28 34.88C143.99 34.47 144.8 34.26 145.7 34.26C146.6 34.26 147.34 34.47 148.04 34.89C148.74 35.31 149.25 35.86 149.57 36.53V30.91H150.83V44.23H149.57V42.03C149.27 42.71 148.78 43.28 148.09 43.71C147.41 44.15 146.6 44.37 145.68 44.37C144.76 44.37 143.97 44.16 143.26 43.74C142.55 43.32 141.99 42.73 141.59 41.96C141.19 41.19 140.99 40.3 140.99 39.3C140.99 38.3 141.19 37.41 141.6 36.64ZM149.09 37.22C148.77 36.62 148.33 36.16 147.77 35.83C147.21 35.51 146.6 35.34 145.93 35.34C145.26 35.34 144.61 35.5 144.06 35.81C143.51 36.12 143.07 36.57 142.76 37.17C142.44 37.76 142.28 38.47 142.28 39.29C142.28 40.11 142.44 40.8 142.76 41.4C143.08 42.01 143.51 42.47 144.06 42.79C144.61 43.11 145.24 43.27 145.93 43.27C146.62 43.27 147.22 43.11 147.77 42.78C148.33 42.46 148.77 41.99 149.09 41.39C149.41 40.79 149.58 40.09 149.58 39.3C149.58 38.51 149.42 37.81 149.09 37.21V37.22Z" fill="#1A1A1A"/>
</g>
<defs>
<radialGradient id="paint0_radial_255_276" cx="0" cy="0" r="1" gradientUnits="userSpaceOnUse" gradientTransform="translate(21.3904 27.09) scale(19.91)">
<stop stop-color="#FF5800"/>
<stop offset="1" stop-color="#9F0000"/>
</radialGradient>
<linearGradient id="paint1_linear_255_276" x1="33.1004" y1="29.01" x2="-5.6496" y2="-9.73" gradientUnits="userSpaceOnUse">
<stop stop-color="#FF5800"/>
<stop offset="0.37" stop-color="#B90000"/>
<stop offset="0.6" stop-color="#B90000"/>
<stop offset="1" stop-color="#B90000"/>
</linearGradient>
<radialGradient id="paint2_radial_255_276" cx="0" cy="0" r="1" gradientUnits="userSpaceOnUse" gradientTransform="translate(12.2104 -3.2) scale(47.49 47.49)">
<stop stop-color="#AFAFAF"/>
<stop offset="0.1" stop-color="#8C8C8C"/>
<stop offset="0.25" stop-color="#616161"/>
<stop offset="0.39" stop-color="#3E3E3E"/>
<stop offset="0.54" stop-color="#232323"/>
<stop offset="0.69" stop-color="#0F0F0F"/>
<stop offset="0.84" stop-color="#030303"/>
<stop offset="1"/>
</radialGradient>
<radialGradient id="paint3_radial_255_276" cx="0" cy="0" r="1" gradientUnits="userSpaceOnUse" gradientTransform="translate(27.6359 23.812) rotate(-20.85) scale(11.232 2.9952)">
<stop stop-color="#B90000"/>
<stop offset="0.06" stop-color="#BF1818"/>
<stop offset="0.21" stop-color="#D05454"/>
<stop offset="0.35" stop-color="#DE8888"/>
<stop offset="0.5" stop-color="#EAB3B3"/>
<stop offset="0.64" stop-color="#F3D4D4"/>
<stop offset="0.77" stop-color="#F9EBEB"/>
<stop offset="0.89" stop-color="#FDFAFA"/>
<stop offset="1" stop-color="white"/>
</radialGradient>
<radialGradient id="paint4_radial_255_276" cx="0" cy="0" r="1" gradientUnits="userSpaceOnUse" gradientTransform="translate(16.6004 22.3231) rotate(-52.16) scale(11.232 2.3296)">
<stop stop-color="#B90000"/>
<stop offset="1" stop-color="white"/>
</radialGradient>
<radialGradient id="paint5_radial_255_276" cx="0" cy="0" r="1" gradientUnits="userSpaceOnUse" gradientTransform="translate(19.6033 32.6152) rotate(-56.93) scale(11.232 2.8704)">
<stop stop-color="#B90000"/>
<stop offset="1" stop-color="white"/>
</radialGradient>
<linearGradient id="paint6_linear_255_276" x1="10.5403" y1="16.23" x2="36.8803" y2="46.23" gradientUnits="userSpaceOnUse">
<stop stop-color="#FFDF00"/>
<stop offset="0.37" stop-color="#FF8400"/>
<stop offset="0.6" stop-color="#FF8400"/>
<stop offset="1" stop-color="#FF8400"/>
</linearGradient>
<linearGradient id="paint7_linear_255_276" x1="23.8103" y1="17.5" x2="-9.4497" y2="117.19" gradientUnits="userSpaceOnUse">
<stop stop-color="#FFDF00"/>
<stop offset="0.37" stop-color="#FF8400"/>
<stop offset="0.6" stop-color="#FF8400"/>
<stop offset="1" stop-color="#FF8400"/>
</linearGradient>
<linearGradient id="paint8_linear_255_276" x1="25.7003" y1="26.63" x2="25.7003" y2="-22.49" gradientUnits="userSpaceOnUse">
<stop stop-color="#FFDF00"/>
<stop offset="0.37" stop-color="#FF8400"/>
<stop offset="0.6" stop-color="#FF8400"/>
<stop offset="1" stop-color="#FF8400"/>
</linearGradient>
<linearGradient id="paint9_linear_255_276" x1="19.0806" y1="12.2" x2="33.8406" y2="12.2" gradientUnits="userSpaceOnUse">
<stop stop-color="#EFEFEF"/>
<stop offset="1" stop-color="#DDDDDD"/>
</linearGradient>
<linearGradient id="paint10_linear_255_276" x1="0.240166" y1="40.29" x2="29.1102" y2="28.67" gradientUnits="userSpaceOnUse">
<stop stop-color="#AFAFAF"/>
<stop offset="0.1" stop-color="#8C8C8C"/>
<stop offset="0.25" stop-color="#616161"/>
<stop offset="0.39" stop-color="#3E3E3E"/>
<stop offset="0.54" stop-color="#232323"/>
<stop offset="0.69" stop-color="#0F0F0F"/>
<stop offset="0.84" stop-color="#030303"/>
<stop offset="1"/>
</linearGradient>
<radialGradient id="paint11_radial_255_276" cx="0" cy="0" r="1" gradientUnits="userSpaceOnUse" gradientTransform="translate(28.9983 32.0943) rotate(-27.4) scale(23.92 4.0768)">
<stop stop-color="#5F0000"/>
<stop offset="0.12" stop-color="#833A3A"/>
<stop offset="0.25" stop-color="#A46E6E"/>
<stop offset="0.37" stop-color="#BF9A9A"/>
<stop offset="0.5" stop-color="#D6BEBE"/>
<stop offset="0.62" stop-color="#E8DADA"/>
<stop offset="0.75" stop-color="#F4EFEF"/>
<stop offset="0.87" stop-color="#FCFBFB"/>
<stop offset="1" stop-color="white"/>
</radialGradient>
<linearGradient id="paint12_linear_255_276" x1="36.4504" y1="2.75" x2="5.92041" y2="63.29" gradientUnits="userSpaceOnUse">
<stop stop-color="#AFAFAF"/>
<stop offset="0.1" stop-color="#8C8C8C"/>
<stop offset="0.25" stop-color="#616161"/>
<stop offset="0.39" stop-color="#3E3E3E"/>
<stop offset="0.54" stop-color="#232323"/>
<stop offset="0.69" stop-color="#0F0F0F"/>
<stop offset="0.84" stop-color="#030303"/>
<stop offset="1"/>
</linearGradient>
<linearGradient id="paint13_linear_255_276" x1="150.21" y1="16.28" x2="60.3103" y2="16.28" gradientUnits="userSpaceOnUse">
<stop stop-color="#FF5800"/>
<stop offset="0.37" stop-color="#B90000"/>
<stop offset="0.6" stop-color="#B90000"/>
<stop offset="1" stop-color="#B90000"/>
</linearGradient>
<linearGradient id="paint14_linear_255_276" x1="150.21" y1="19.92" x2="60.3103" y2="19.92" gradientUnits="userSpaceOnUse">
<stop stop-color="#FF5800"/>
<stop offset="0.37" stop-color="#B90000"/>
<stop offset="0.6" stop-color="#B90000"/>
<stop offset="1" stop-color="#B90000"/>
</linearGradient>
<linearGradient id="paint15_linear_255_276" x1="150.21" y1="17.6" x2="60.3101" y2="17.6" gradientUnits="userSpaceOnUse">
<stop stop-color="#FF5800"/>
<stop offset="0.37" stop-color="#B90000"/>
<stop offset="0.6" stop-color="#B90000"/>
<stop offset="1" stop-color="#B90000"/>
</linearGradient>
<linearGradient id="paint16_linear_255_276" x1="150.21" y1="17.6" x2="60.3104" y2="17.6" gradientUnits="userSpaceOnUse">
<stop stop-color="#FF5800"/>
<stop offset="0.37" stop-color="#B90000"/>
<stop offset="0.6" stop-color="#B90000"/>
<stop offset="1" stop-color="#B90000"/>
</linearGradient>
<linearGradient id="paint17_linear_255_276" x1="150.21" y1="16.38" x2="60.3104" y2="16.38" gradientUnits="userSpaceOnUse">
<stop stop-color="#FF5800"/>
<stop offset="0.37" stop-color="#B90000"/>
<stop offset="0.6" stop-color="#B90000"/>
<stop offset="1" stop-color="#B90000"/>
</linearGradient>
<linearGradient id="paint18_linear_255_276" x1="150.21" y1="17.55" x2="60.3105" y2="17.55" gradientUnits="userSpaceOnUse">
<stop stop-color="#FF5800"/>
<stop offset="0.37" stop-color="#B90000"/>
<stop offset="0.6" stop-color="#B90000"/>
<stop offset="1" stop-color="#B90000"/>
</linearGradient>
<linearGradient id="paint19_linear_255_276" x1="150.21" y1="17.6" x2="60.3104" y2="17.6" gradientUnits="userSpaceOnUse">
<stop stop-color="#FF5800"/>
<stop offset="0.37" stop-color="#B90000"/>
<stop offset="0.6" stop-color="#B90000"/>
<stop offset="1" stop-color="#B90000"/>
</linearGradient>
<linearGradient id="paint20_linear_255_276" x1="150.21" y1="17.6" x2="60.3105" y2="17.6" gradientUnits="userSpaceOnUse">
<stop stop-color="#FF5800"/>
<stop offset="0.37" stop-color="#B90000"/>
<stop offset="0.6" stop-color="#B90000"/>
<stop offset="1" stop-color="#B90000"/>
</linearGradient>
<linearGradient id="paint21_linear_255_276" x1="150.211" y1="17.6" x2="60.3106" y2="17.6" gradientUnits="userSpaceOnUse">
<stop stop-color="#FF5800"/>
<stop offset="0.37" stop-color="#B90000"/>
<stop offset="0.6" stop-color="#B90000"/>
<stop offset="1" stop-color="#B90000"/>
</linearGradient>
<clipPath id="clip0_255_276">
<rect width="150.83" height="54.17" fill="white"/>
</clipPath>
</defs>
</svg>
